<svg id="visual" viewBox="0 0 900 600" width="900" height="600" xmlns="http://www.w3.org/2000/svg" xmlns:xlink="http://www.w3.org/1999/xlink" version="1.1"><rect width="900" height="600" fill="#001122"></rect><g><g transform="translate(772 263)"><path d="M64.4 -21.8C73.9 8.1 65.2 43 43.5 58.4C21.8 73.8 -13.1 69.9 -35.8 52.5C-58.6 35.2 -69.3 4.6 -61.3 -23.3C-53.4 -51.2 -26.7 -76.5 0.4 -76.6C27.5 -76.7 55 -51.8 64.4 -21.8Z" fill="#0066FF"></path></g><g transform="translate(706 473)"><path d="M57.8 -17.4C65.4 4.7 55.6 33.9 34.8 49.4C14 64.9 -17.9 66.7 -37.7 52.2C-57.5 37.7 -65.3 7 -57 -16.1C-48.7 -39.2 -24.4 -54.6 0.4 -54.7C25.1 -54.8 50.1 -39.6 57.8 -17.4Z" fill="#0066FF"></path></g><g transform="translate(579 123)"><path d="M43.7 -14.2C48.6 0.9 39 20.7 23.8 31.4C8.6 42.2 -12.3 43.9 -25.4 34.5C-38.5 25.1 -43.8 4.5 -38.3 -11.4C-32.8 -27.4 -16.4 -38.8 1.5 -39.3C19.4 -39.8 38.8 -29.3 43.7 -14.2Z" fill="#0066FF"></path></g><g transform="translate(354 431)"><path d="M54.5 -17C61.9 4.9 53 32.9 33.4 47.5C13.7 62.2 -16.7 63.6 -35.8 49.6C-54.9 35.7 -62.7 6.4 -54.8 -16.2C-46.9 -38.9 -23.5 -54.8 0.1 -54.9C23.6 -54.9 47.1 -38.9 54.5 -17Z" fill="#0066FF"></path></g><g transform="translate(236 237)"><path d="M51.9 -19.6C59 4.9 50.8 31.7 32.9 44.5C15.1 57.3 -12.3 56 -32.9 41.9C-53.5 27.7 -67.2 0.7 -60.5 -23.1C-53.9 -47 -27 -67.7 -2.3 -67C22.4 -66.2 44.9 -44 51.9 -19.6Z" fill="#0066FF"></path></g><g transform="translate(117 492)"><path d="M53.4 -19.1C61.2 6.5 53.8 35.2 34.5 49.8C15.2 64.4 -16.1 64.8 -36 50.2C-55.8 35.6 -64.2 6 -56.3 -19.8C-48.4 -45.6 -24.2 -67.7 -0.7 -67.5C22.8 -67.3 45.7 -44.8 53.4 -19.1Z" fill="#0066FF"></path></g></g></svg>