<svg id="visual" viewBox="0 0 900 600" width="900" height="600" xmlns="http://www.w3.org/2000/svg" xmlns:xlink="http://www.w3.org/1999/xlink" version="1.1"><rect x="0" y="0" width="900" height="600" fill="#001220"></rect><defs><linearGradient id="grad1_0" x1="33.3%" y1="0%" x2="100%" y2="100%"><stop offset="20%" stop-color="#6600ff" stop-opacity="1"></stop><stop offset="80%" stop-color="#6600ff" stop-opacity="1"></stop></linearGradient></defs><defs><linearGradient id="grad1_1" x1="33.3%" y1="0%" x2="100%" y2="100%"><stop offset="20%" stop-color="#6600ff" stop-opacity="1"></stop><stop offset="80%" stop-color="#0031dd" stop-opacity="1"></stop></linearGradient></defs><defs><linearGradient id="grad1_2" x1="33.3%" y1="0%" x2="100%" y2="100%"><stop offset="20%" stop-color="#0035b1" stop-opacity="1"></stop><stop offset="80%" stop-color="#0031dd" stop-opacity="1"></stop></linearGradient></defs><defs><linearGradient id="grad1_3" x1="33.3%" y1="0%" x2="100%" y2="100%"><stop offset="20%" stop-color="#0035b1" stop-opacity="1"></stop><stop offset="80%" stop-color="#002e81" stop-opacity="1"></stop></linearGradient></defs><defs><linearGradient id="grad1_4" x1="33.3%" y1="0%" x2="100%" y2="100%"><stop offset="20%" stop-color="#00214f" stop-opacity="1"></stop><stop offset="80%" stop-color="#002e81" stop-opacity="1"></stop></linearGradient></defs><defs><linearGradient id="grad1_5" x1="33.3%" y1="0%" x2="100%" y2="100%"><stop offset="20%" stop-color="#00214f" stop-opacity="1"></stop><stop offset="80%" stop-color="#001220" stop-opacity="1"></stop></linearGradient></defs><defs><linearGradient id="grad2_0" x1="0%" y1="0%" x2="66.7%" y2="100%"><stop offset="20%" stop-color="#6600ff" stop-opacity="1"></stop><stop offset="80%" stop-color="#6600ff" stop-opacity="1"></stop></linearGradient></defs><defs><linearGradient id="grad2_1" x1="0%" y1="0%" x2="66.7%" y2="100%"><stop offset="20%" stop-color="#0031dd" stop-opacity="1"></stop><stop offset="80%" stop-color="#6600ff" stop-opacity="1"></stop></linearGradient></defs><defs><linearGradient id="grad2_2" x1="0%" y1="0%" x2="66.7%" y2="100%"><stop offset="20%" stop-color="#0031dd" stop-opacity="1"></stop><stop offset="80%" stop-color="#0035b1" stop-opacity="1"></stop></linearGradient></defs><defs><linearGradient id="grad2_3" x1="0%" y1="0%" x2="66.7%" y2="100%"><stop offset="20%" stop-color="#002e81" stop-opacity="1"></stop><stop offset="80%" stop-color="#0035b1" stop-opacity="1"></stop></linearGradient></defs><defs><linearGradient id="grad2_4" x1="0%" y1="0%" x2="66.7%" y2="100%"><stop offset="20%" stop-color="#002e81" stop-opacity="1"></stop><stop offset="80%" stop-color="#00214f" stop-opacity="1"></stop></linearGradient></defs><defs><linearGradient id="grad2_5" x1="0%" y1="0%" x2="66.7%" y2="100%"><stop offset="20%" stop-color="#001220" stop-opacity="1"></stop><stop offset="80%" stop-color="#00214f" stop-opacity="1"></stop></linearGradient></defs><g transform="translate(900, 0)"><path d="M0 486.7C-64.2 481.5 -128.4 476.3 -186.3 449.7C-244.2 423.1 -295.7 375 -321 321C-346.3 267.1 -345.4 207.2 -368.6 152.7C-391.9 98.2 -439.3 49.1 -486.7 0L0 0Z" fill="#001a37"></path><path d="M0 405.6C-53.5 401.3 -107 396.9 -155.2 374.7C-203.5 352.6 -246.4 312.5 -267.5 267.5C-288.6 222.5 -287.8 172.6 -307.2 127.2C-326.6 81.8 -366.1 40.9 -405.6 0L0 0Z" fill="#002868"></path><path d="M0 324.5C-42.8 321 -85.6 317.6 -124.2 299.8C-162.8 282 -197.1 250 -214 214C-230.9 178 -230.3 138.1 -245.8 101.8C-261.2 65.5 -292.9 32.7 -324.5 0L0 0Z" fill="#003299"></path><path d="M0 243.4C-32.1 240.8 -64.2 238.2 -93.1 224.8C-122.1 211.5 -147.9 187.5 -160.5 160.5C-173.2 133.5 -172.7 103.6 -184.3 76.3C-195.9 49.1 -219.7 24.6 -243.4 0L0 0Z" fill="#0035c8"></path><path d="M0 162.2C-21.4 160.5 -42.8 158.8 -62.1 149.9C-81.4 141 -98.6 125 -107 107C-115.4 89 -115.1 69.1 -122.9 50.9C-130.6 32.7 -146.4 16.4 -162.2 0L0 0Z" fill="#3027ef"></path><path d="M0 81.1C-10.7 80.3 -21.4 79.4 -31 74.9C-40.7 70.5 -49.3 62.5 -53.5 53.5C-57.7 44.5 -57.6 34.5 -61.4 25.4C-65.3 16.4 -73.2 8.2 -81.1 0L0 0Z" fill="#6600ff"></path></g><g transform="translate(0, 600)"><path d="M0 -486.7C68.2 -484.6 136.5 -482.5 186.3 -449.7C236.1 -416.9 267.4 -353.3 304.1 -304.1C340.7 -254.8 382.6 -219.7 413.9 -171.4C445.2 -123.1 466 -61.6 486.7 0L0 0Z" fill="#001a37"></path><path d="M0 -405.6C56.9 -403.9 113.7 -402.1 155.2 -374.7C196.7 -347.4 222.9 -294.4 253.4 -253.4C283.9 -212.3 318.8 -183.1 344.9 -142.9C371 -102.6 388.3 -51.3 405.6 0L0 0Z" fill="#002868"></path><path d="M0 -324.5C45.5 -323.1 91 -321.7 124.2 -299.8C157.4 -277.9 178.3 -235.6 202.7 -202.7C227.1 -169.8 255 -146.5 275.9 -114.3C296.8 -82.1 310.7 -41 324.5 0L0 0Z" fill="#003299"></path><path d="M0 -243.4C34.1 -242.3 68.2 -241.3 93.1 -224.8C118 -208.4 133.7 -176.7 152 -152C170.3 -127.4 191.3 -109.9 206.9 -85.7C222.6 -61.6 233 -30.8 243.4 0L0 0Z" fill="#0035c8"></path><path d="M0 -162.2C22.7 -161.5 45.5 -160.8 62.1 -149.9C78.7 -139 89.1 -117.8 101.4 -101.4C113.6 -84.9 127.5 -73.2 138 -57.1C148.4 -41 155.3 -20.5 162.2 0L0 0Z" fill="#3027ef"></path><path d="M0 -81.1C11.4 -80.8 22.7 -80.4 31 -74.9C39.3 -69.5 44.6 -58.9 50.7 -50.7C56.8 -42.5 63.8 -36.6 69 -28.6C74.2 -20.5 77.7 -10.3 81.1 0L0 0Z" fill="#6600ff"></path></g></svg>