<svg id="visual" viewBox="0 0 900 600" width="900" height="600" xmlns="http://www.w3.org/2000/svg" xmlns:xlink="http://www.w3.org/1999/xlink" version="1.1"><rect x="0" y="0" width="900" height="600" fill="#000000"></rect><path d="M0 421L21.5 425.3C43 429.7 86 438.3 128.8 434.5C171.7 430.7 214.3 414.3 257.2 425.8C300 437.3 343 476.7 385.8 477.8C428.7 479 471.3 442 514.2 421.5C557 401 600 397 642.8 395.5C685.7 394 728.3 395 771.2 397.7C814 400.3 857 404.7 878.5 406.8L900 409L900 601L878.5 601C857 601 814 601 771.2 601C728.3 601 685.7 601 642.8 601C600 601 557 601 514.2 601C471.3 601 428.7 601 385.8 601C343 601 300 601 257.2 601C214.3 601 171.7 601 128.8 601C86 601 43 601 21.5 601L0 601Z" fill="#0023ff" stroke-linecap="round" stroke-linejoin="miter"></path></svg>