<svg id="visual" viewBox="0 0 900 600" width="900" height="600" xmlns="http://www.w3.org/2000/svg" xmlns:xlink="http://www.w3.org/1999/xlink" version="1.1"><rect x="0" y="0" width="900" height="600" fill="#002233"></rect><path d="M0 332L12.5 338.7C25 345.3 50 358.7 75 382C100 405.3 125 438.7 150 442.7C175 446.7 200 421.3 225 413C250 404.7 275 413.3 300 423C325 432.7 350 443.3 375 450.3C400 457.3 425 460.7 450 444.2C475 427.7 500 391.3 525 369.8C550 348.3 575 341.7 600 346.5C625 351.3 650 367.7 675 389.2C700 410.7 725 437.3 750 440.5C775 443.7 800 423.3 825 422.5C850 421.7 875 440.3 887.5 449.7L900 459L900 601L887.5 601C875 601 850 601 825 601C800 601 775 601 750 601C725 601 700 601 675 601C650 601 625 601 600 601C575 601 550 601 525 601C500 601 475 601 450 601C425 601 400 601 375 601C350 601 325 601 300 601C275 601 250 601 225 601C200 601 175 601 150 601C125 601 100 601 75 601C50 601 25 601 12.5 601L0 601Z" fill="#0066FF" stroke-linecap="round" stroke-linejoin="miter"></path></svg>